<?xml version="1.0" encoding="UTF-8"?>
<svg id="Layer_9" data-name="Layer 9" xmlns="http://www.w3.org/2000/svg" viewBox="0 0 1268.33 928.48">
  <path d="M738.88,437.35c9.08-1.6,14.58,10.33,8.37,16.25-10.52,6.63-26.66,11.79-38.01,14.67-24.85,1.54-23.68-37.23-27.66-54.3-1.86-14.58-1.87-20.27-.4-33.81.89-9.24,2.08-18.19,5.5-27.35,2.34-4.16,9.65-5.94,14.66-6.83,10.1-.86,19.45-7.72,29.23-2.73,3.22,1.87,4.37,6.16,5.22,9.47-6.03,10.65-9.95,8.37-19.77,11.15l-10.17,2.88.7,30.77c6.76-5.04,16.08-10.2,22.31-1.42,0,0,1.21,6.4,1.21,6.4-5.49,9.05-14.34,15.29-22.46,21.88.34,5.23,1.7,14.68,3.21,20.11,6.47-1.78,21.65-5.84,28.06-7.15Z"/>
  <path d="M950.6,421.27c3.96,4.04,12.1,1.53,17.12-.61.58-.25,1.23-.3,1.85-.16,4.77,1.01,9.23,3.87,8.29,9.59-.61,12.45-20.07,14.74-28.13,12.69-25.14-7.74-28.12-41.36-19.45-62.32,4.79-14.57,17.01-31.73,34.26-30.31,14.06,2.62,26.38,14.37,29.23,28.68,7.18,36-26.86,24.78-48.79,23.18-1.91,4.15,2.95,16.54,5.61,19.26ZM968.06,384.16c-.1-5.46-.01-12.76-6-14.36-.54-.14-1.12-.13-1.64.08-6.35,2.63-8.18,7.67-10.41,13.07,2.48,1.33,17.67,3.03,18.05,1.21Z"/>
  <path d="M563.15,443.63c-41.41-13.39-13.85-62.59,21.9-56.69.19-9.13-2.88-17.54-9.33-24.03-7.86-7.91-15.71,5.17-21.02-.12-3.94-3.92,5.42-14.57,12.16-16.97,9.8-3.49,18.71,1.79,25.44,8.71,13.09,14.09,13.1,35.89,14.99,53.93-.16,8.58,2.66,21.15-2.11,28.88-9.67,12.5-28.4,10.02-42.02,6.28ZM585.37,427.25c3.89-.55,3.38-3.26,3.23-5.55l-.96-14.46c-6.5-1.29-12.85-.84-19.32.83l-4.79,6.67c-5.33,12.3,14.09,12.54,21.84,12.5Z"/>
  <path d="M336.36,433.48c-54.05,17.39-71.36-63.21-19.64-74.78,44.23-11.85,59.65,60.71,19.64,74.78ZM330.69,414.25c13.46-7.06,11.94-27.88.37-35.64-4.81-2.98-10.85-1.12-14.74,2.27-17.2,10.08-9.16,44.12,14.37,33.36Z"/>
  <path d="M877.12,470.14c-3.07.92-4.79,1.65-6.93-1.51-5.21-8.4,5.14-16.59,8.68-23.58,25.83-38.55,5.49-46.54-9.03-81.42-7.88-17.78,20.27-68.82,40.3-47.14,5.1,14.13-13.43,16.85-17.98,27.38-2.09,7.83-5.27,17.03.89,24.03,7.55,10.01,13.41,21.26,16.03,33.61,4.11,16.22.57,28.32-6.92,42.91-2.83,5.16-5.89,9.9-9.42,14.68-1.77,2.4-5.34,5.04-6.71,6.25-2.28,2.02-2.79,2.96-8.89,4.79Z"/>
  <path d="M1000.88,429.79c-3.54-12.25,17.35-25.39,20.91-9.92-.19,3.7-1.17,7.33.03,10.56,2.69,4.27,13.81,3.14,14.33-2.82,5.64-18.84-9.12-17.59-20.41-41.93-6.13-12.97-8.03-29.21-.24-42.07,5.87-7.45,14.2-17.63,24.94-15.91,6.12,5.82-15.12,21.68-11.4,33.7.03,9.15,3.8,16.52,9.29,23.29,56.87,54.06-23.09,101.59-37.46,45.1Z"/>
  <path d="M849.51,456.63c-5.03,6.39-11.59,15.1-20.62,13.29-6.05-1.09-11.37-5.14-10-11.79,10.45-22.63,33.4-20.17,28.37-52.07-5-19.87-28.59-27.98-23.11-53.54,1.84-8.31,5.36-15.91,11-21.88,4.54-4.8,17.07-14.02,22.04-8.22,2.43,2.83-5.41,9.98-8.28,15.1-20.89,33.87,15.02,35.76,18.29,68.55,1.7,19.03-5.75,36.35-17.71,50.56Z"/>
  <path d="M392.46,462.49c-5.38.11-10.7-.46-12.72-5.9-9.42-14.76-5.28-34.2-5.84-51.02.67-16.88,2.24-38.06,4.84-54.92.81-6.42.28-31.03,9.25-31.19,15.83,5.22,5.69,50.51,6.5,64.4.16,8.16-1.18,16.4-.99,24.7,1.35,19.35-3.54,25.02,4.75,42.07-.12,8.37-.17,6.04-5.79,11.86Z"/>
  <path d="M452.65,429.31c-6.24-14.11-12.05-27.6-14.42-42.63-.57-3.63-1.39-12.58,3.44-12.67,4.09-.08,11.68,17.98,14.03,22.51,3.37,6.54,8.1,15.9,12.12,22.26,2.84-5.49,2.36-10.97,2.96-16.89.95-9.33,2.8-10.36,2.93-24.13,1.32-20.78,25.66-16.96,19.04,10.4-4.77,15.37-.52,58.58-20.2,60.62-13.92,1.4-14.56-9.37-19.9-19.48Z"/>
  <path d="M793.17,441.91c-.25,12.74-19.1,14.31-19.91.93-.92-14.73,1.55-29.36,1.91-44.07-1.98-10.42,7.31-20.49,16.7-12.03,4.83,3.93,1.82,16.87,2.12,22.54-.78,10.82-.04,21.74-.82,32.63Z"/>
  <path d="M533.05,440.36c-6.13,8.02-18.36,3.22-17.84-7.53-.59-8.9-.58-28.66-.44-37.72-.72-15.67,9.13-22.94,18.52-8.51,1.33,7.58,2.25,15.41,2.26,23.09,0,4.35.04,13.57.04,17.86,0,4.51.74,8.15-2.55,12.81Z"/>
  <path d="M415.95,445.02c-11.69-3.64-7.58-18.39-7.79-27.52,1.48-9.23-2-35.34,10.69-36.5,14.07.07,8.99,20.82,9.61,29.5.29,5.51-.67,12.87-.64,18.22,1.29,6.96-3.22,17.77-11.87,16.3Z"/>
  <path d="M540.21,342.59c-1.23,5.79-7.21,9.62-12.48,10.97-21.74,5-25.97-25.23-11.86-36.08,15.53-11.19,27.98,11.26,24.34,25.12Z"/>
  <path d="M786.76,353.43c-19.22,3.17-25.34-20.9-9-30.39,18.55-7.99,29.16,24.32,9,30.39Z"/>
  <path d="M417.61,354.96l-6.17-7.98c-2.02-10.17,1.29-23.37,13.75-22.75,24.46,4.76,11.48,41.33-7.58,30.73Z"/>
</svg>