<?xml version="1.0" encoding="UTF-8"?>
<svg id="Layer_10" data-name="Layer 10" xmlns="http://www.w3.org/2000/svg" viewBox="0 0 535.36 520.69">
  <path d="M295.08,519.93c-169.57,10.19-256.68-83.86-282.76-176.18-13.62-48.21-22.26-105.48,9.09-174.53,20.91-46.07,36.41-61.49,43.08-69.88,14.72-18.52,20.11-28.57,24.78-42.07,4.71-13.61,9.41-32.33,6.8-45.05-1.6-7.83,3.02-13,8.29-12.12,4.53.76,9,6.29,6.93,14.12-2.24,8.48-3.02,22.45-1.28,35.76,1.97,15.11,6.25,27.36,13.09,36.05,8.25,10.48,20.43,20.41,35.36,14.77,9.6-3.62,26.6-15.7,36.48-24.09,10.37-8.81,21.9-16.14,28.59-24.29,6.01-7.32,16.15-7.21,18.17-1.11,2.72,8.22-3.18,12.51-9.48,15.76-7.25,3.75-13.29,8.36-19.38,13.34-14.85,12.12-26.77,34.68-32.02,46.7-35.17,80.49,4.33,155.5,73.67,168.11,47.51,8.64,81.34-24.67,85.16-48.7,5.26-33.14-14.7-45.61-31.45-46.77-22.3-1.55-28.65,18.97-28.65,51.41,0,12.04-14.44,12.2-25.58,8.48-13.04-4.36-34.27-22.87-41.31-41.42-15.22-40.09-4.51-81.17,13.79-102.66,31.98-37.54,67.46-51.6,112.98-52.5,60.4-1.19,112.38,23.96,144.72,57.52,33.91,35.18,52.53,90.28,51.14,151.08-1.18,51.63-4.89,104.52-48.76,155.73-42.8,49.98-105.33,87.35-191.48,92.53h.03Z"/>
</svg>